HIERARCHY
ROOT Hips
{
  OFFSET 5.84602e-005 68.8428 3.50346
  CHANNELS 6 Xposition Yposition Zposition Zrotation Xrotation Yrotation
  JOINT Spine
  {
    OFFSET 0 8.597 -4.6522
    CHANNELS 3 Zrotation Xrotation Yrotation
    JOINT Spine1
    {
      OFFSET 0 7.8454 0.4098
      CHANNELS 3 Zrotation Xrotation Yrotation
      JOINT Spine2
      {
        OFFSET 0 9.7078 -2.1609
        CHANNELS 3 Zrotation Xrotation Yrotation
        JOINT Neck
        {
          OFFSET 0 21.8761 -0.4549
          CHANNELS 3 Zrotation Xrotation Yrotation
          JOINT Head
          {
            OFFSET 0 12.3537 3.3602
            CHANNELS 3 Zrotation Xrotation Yrotation
            End Site
            {
              OFFSET 0.0001 18.9506 0.5657
            }
          }
        }
        JOINT LeftShoulder
        {
          OFFSET 2.2086 21.1115 7.2329
          CHANNELS 3 Zrotation Xrotation Yrotation
          JOINT LeftArm
          {
            OFFSET 13.1193 3.0282 -4.8998
            CHANNELS 3 Zrotation Xrotation Yrotation
            JOINT LeftForeArm
            {
              OFFSET 27.4081 -0.0973053 -0.2375
              CHANNELS 3 Zrotation Xrotation Yrotation
              JOINT LeftHand
              {
                OFFSET 22.8641 0.0662994 -0.1369
                CHANNELS 3 Zrotation Xrotation Yrotation
                JOINT LeftHandIndex1
                {
                  OFFSET 8.8614 0.775009 2.4612
                  CHANNELS 3 Zrotation Xrotation Yrotation
                  JOINT LeftHandIndex2
                  {
                    OFFSET 3.3146 -0.808304 0.5841
                    CHANNELS 3 Zrotation Xrotation Yrotation
                    JOINT LeftHandIndex3
                    {
                      OFFSET 2.2628 -0.552002 0.3989
                      CHANNELS 3 Zrotation Xrotation Yrotation
                      End Site
                      {
                        OFFSET 1.6102 -0.4807 0.2612
                      }
                    }
                  }
                }
                JOINT LeftHandMiddle1
                {
                  OFFSET 8.9937 0.895004 0.2143
                  CHANNELS 3 Zrotation Xrotation Yrotation
                  JOINT LeftHandMiddle2
                  {
                    OFFSET 4.0984 0.0113983 -0.0242
                    CHANNELS 3 Zrotation Xrotation Yrotation
                    JOINT LeftHandMiddle3
                    {
                      OFFSET 2.2716 0.00689697 -0.0138001
                      CHANNELS 3 Zrotation Xrotation Yrotation
                      End Site
                      {
                        OFFSET 2.0404 -0.1441 0.0027
                      }
                    }
                  }
                }
                JOINT LeftHandRing1
                {
                  OFFSET 8.5234 0.597198 -2.0164
                  CHANNELS 3 Zrotation Xrotation Yrotation
                  JOINT LeftHandRing2
                  {
                    OFFSET 3.7188 -0.188293 -0.2328
                    CHANNELS 3 Zrotation Xrotation Yrotation
                    JOINT LeftHandRing3
                    {
                      OFFSET 2.1191 -0.106598 -0.1332
                      CHANNELS 3 Zrotation Xrotation Yrotation
                      End Site
                      {
                        OFFSET 1.8737 -0.2304 -0.0886
                      }
                    }
                  }
                }
                JOINT LeftHandPinky1
                {
                  OFFSET 7.9094 -0.601089 -3.4825
                  CHANNELS 3 Zrotation Xrotation Yrotation
                  JOINT LeftHandPinky2
                  {
                    OFFSET 2.2874 -0.477005 -0.6314
                    CHANNELS 3 Zrotation Xrotation Yrotation
                    JOINT LeftHandPinky3
                    {
                      OFFSET 1.6774 -0.349396 -0.4633
                      CHANNELS 3 Zrotation Xrotation Yrotation
                      End Site
                      {
                        OFFSET 1.4888 -0.4091 -0.3416
                      }
                    }
                  }
                }
                JOINT LeftHandThumb1
                {
                  OFFSET 1.833 -1.3875 1.3896
                  CHANNELS 3 Zrotation Xrotation Yrotation
                  JOINT LeftHandThumb2
                  {
                    OFFSET 3.4129 -1.121 2.5732
                    CHANNELS 3 Zrotation Xrotation Yrotation
                    JOINT LeftHandThumb3
                    {
                      OFFSET 2.2474 -0.804199 1.6192
                      CHANNELS 3 Zrotation Xrotation Yrotation
                      End Site
                      {
                        OFFSET 1.6527 -0.5689 1.1317
                      }
                    }
                  }
                }
              }
            }
          }
        }
        JOINT RightShoulder
        {
          OFFSET -2.2086 21.1115 7.2329
          CHANNELS 3 Zrotation Xrotation Yrotation
          JOINT RightArm
          {
            OFFSET -13.1216 3.0287 -4.9007
            CHANNELS 3 Zrotation Xrotation Yrotation
            JOINT RightForeArm
            {
              OFFSET -27.4081 -0.0973053 -0.2375
              CHANNELS 3 Zrotation Xrotation Yrotation
              JOINT RightHand
              {
                OFFSET -22.8641 0.0664063 -0.1369
                CHANNELS 3 Zrotation Xrotation Yrotation
                JOINT RightHandIndex1
                {
                  OFFSET -8.8614 0.774994 2.4612
                  CHANNELS 3 Zrotation Xrotation Yrotation
                  JOINT RightHandIndex2
                  {
                    OFFSET -3.3146 -0.808304 0.5841
                    CHANNELS 3 Zrotation Xrotation Yrotation
                    JOINT RightHandIndex3
                    {
                      OFFSET -2.2628 -0.552002 0.3989
                      CHANNELS 3 Zrotation Xrotation Yrotation
                      End Site
                      {
                        OFFSET -1.6102 -0.4807 0.2612
                      }
                    }
                  }
                }
                JOINT RightHandMiddle1
                {
                  OFFSET -8.9937 0.894989 0.2143
                  CHANNELS 3 Zrotation Xrotation Yrotation
                  JOINT RightHandMiddle2
                  {
                    OFFSET -4.0984 0.0113983 -0.0242
                    CHANNELS 3 Zrotation Xrotation Yrotation
                    JOINT RightHandMiddle3
                    {
                      OFFSET -2.2716 0.00691223 -0.0138001
                      CHANNELS 3 Zrotation Xrotation Yrotation
                      End Site
                      {
                        OFFSET -2.0404 -0.1441 0.0027
                      }
                    }
                  }
                }
                JOINT RightHandRing1
                {
                  OFFSET -8.5234 0.597198 -2.0164
                  CHANNELS 3 Zrotation Xrotation Yrotation
                  JOINT RightHandRing2
                  {
                    OFFSET -3.7188 -0.188309 -0.2328
                    CHANNELS 3 Zrotation Xrotation Yrotation
                    JOINT RightHandRing3
                    {
                      OFFSET -2.1191 -0.106598 -0.1332
                      CHANNELS 3 Zrotation Xrotation Yrotation
                      End Site
                      {
                        OFFSET -1.8737 -0.2304 -0.0886
                      }
                    }
                  }
                }
                JOINT RightHandPinky1
                {
                  OFFSET -7.9094 -0.601105 -3.4825
                  CHANNELS 3 Zrotation Xrotation Yrotation
                  JOINT RightHandPinky2
                  {
                    OFFSET -2.2874 -0.477005 -0.6314
                    CHANNELS 3 Zrotation Xrotation Yrotation
                    JOINT RightHandPinky3
                    {
                      OFFSET -1.6774 -0.349396 -0.4633
                      CHANNELS 3 Zrotation Xrotation Yrotation
                      End Site
                      {
                        OFFSET -1.4888 -0.4091 -0.3416
                      }
                    }
                  }
                }
                JOINT RightHandThumb1
                {
                  OFFSET -1.833 -1.38751 1.3896
                  CHANNELS 3 Zrotation Xrotation Yrotation
                  JOINT RightHandThumb2
                  {
                    OFFSET -3.41299 -1.12099 2.5732
                    CHANNELS 3 Zrotation Xrotation Yrotation
                    JOINT RightHandThumb3
                    {
                      OFFSET -2.24741 -0.804108 1.6192
                      CHANNELS 3 Zrotation Xrotation Yrotation
                      End Site
                      {
                        OFFSET -1.6527 -0.5689 1.1317
                      }
                    }
                  }
                }
              }
            }
          }
        }
      }
    }
  }
  JOINT RightUpLeg
  {
    OFFSET -9.1966 3.8861 -0.7581
    CHANNELS 3 Zrotation Xrotation Yrotation
    JOINT RightLeg
    {
      OFFSET -0.7359 -41.0265 0
      CHANNELS 3 Zrotation Xrotation Yrotation
      JOINT RightFoot
      {
        OFFSET 0 -40.2855 0
        CHANNELS 3 Zrotation Xrotation Yrotation
        JOINT RightToeBase
        {
          OFFSET 0 -5.6122 11.7359
          CHANNELS 3 Zrotation Xrotation Yrotation
          End Site
          {
            OFFSET 0 0 7.8731
          }
        }
      }
    }
  }
  JOINT LeftUpLeg
  {
    OFFSET 9.1965 3.8864 -0.7581
    CHANNELS 3 Zrotation Xrotation Yrotation
    JOINT LeftLeg
    {
      OFFSET 0.7359 -41.0268 0
      CHANNELS 3 Zrotation Xrotation Yrotation
      JOINT LeftFoot
      {
        OFFSET 0 -40.2855 0
        CHANNELS 3 Zrotation Xrotation Yrotation
        JOINT LeftToeBase
        {
          OFFSET 0 -5.6122 11.7359
          CHANNELS 3 Zrotation Xrotation Yrotation
          End Site
          {
            OFFSET 0 0 7.8731
          }
        }
      }
    }
  }
}
MOTION
Frames:	5
Frame Time:	0.0333333
1.4582 68.3332 64.012 -6.65829e-015 2.92415 180 -0.197796 6.20713 -0.3677 -0.358429 12.4154 -0.720097 -0.358429 12.4154 -0.720097 7.1509 -27.756 3.51271 5.8056e-007 -15.0458 4.01641e-007 -7.436 0.86098 -22.9097 -59.7501 -3.06898 -17.4525 -8.38621 15.3555 -47.559 1.24125 -0.585915 1.52717 9.99738e-008 -1.15176e-007 -1.49316e-007 -3.74902e-007 4.31909e-007 5.59935e-007 -8.49777e-007 9.78995e-007 1.26919e-006 9.99738e-008 -1.15176e-007 -1.49316e-007 -0.0146114 -9.49315e-005 4.55985e-006 -8.49774e-007 9.78833e-007 1.26931e-006 9.99738e-008 -1.15176e-007 -1.49316e-007 -0.0187606 -0.00118121 6.19096e-005 -8.49761e-007 9.78788e-007 1.26936e-006 9.99738e-008 -1.15176e-007 -1.49316e-007 -0.0123165 -0.00325914 0.000681226 -8.49734e-007 9.78864e-007 1.26932e-006 9.99738e-008 -1.15176e-007 -1.49316e-007 -3.74902e-007 4.31909e-007 5.59935e-007 -8.49777e-007 9.78995e-007 1.26919e-006 9.44835 1.07784 24.8462 61.3712 -1.82688 15.8448 8.61699 15.522 48.1413 -3.9505 0.588524 -4.04462 -9.39915e-008 -1.20815e-007 1.48741e-007 1.87983e-007 2.41629e-007 -2.97483e-007 -2.34979e-007 -3.02036e-007 3.71853e-007 -9.39915e-008 -1.20815e-007 1.48741e-007 0.014968 -8.79955e-005 -1.57864e-006 -2.34978e-007 -3.01988e-007 3.71893e-007 -9.39915e-008 -1.20815e-007 1.48741e-007 0.0190182 -0.00119518 -5.97516e-005 -2.34974e-007 -3.01975e-007 3.71906e-007 -9.39915e-008 -1.20815e-007 1.48741e-007 0.0123328 -0.00326691 -0.000680276 -2.34966e-007 -3.01998e-007 3.71892e-007 -9.39915e-008 -1.20815e-007 1.48741e-007 1.87983e-007 2.41629e-007 -2.97483e-007 -2.34979e-007 -3.02036e-007 3.71853e-007 -3.7152 -10.3199 -8.41734 0.767868 32.0352 -0.154337 9.06005 -15.2281 -8.45771 8.03331e-007 3.53763e-007 9.21749e-009 6.91151 -10.2314 10.7122 -0.843548 31.8788 0.156361 -11.3401 -14.963 4.06244 -5.96354e-016 -5.96354e-016 6.36111e-015 
1.45823 68.2951 64.1525 -6.72909e-015 2.34726 180 -0.197116 6.11187 -0.368025 -0.357563 12.225 -0.720975 -0.357563 12.225 -0.720975 7.10675 -27.6195 3.48375 -6.28953e-007 -15.2665 -1.04925e-007 -7.3372 0.98651 -22.7598 -59.8236 -3.00921 -17.372 -8.48312 15.4389 -47.9157 1.51325 -0.372578 1.46627 -4.75633e-007 5.47086e-007 7.0875e-007 1.02637e-006 -1.18055e-006 -1.52941e-006 -6.008e-007 6.91056e-007 8.95263e-007 -4.75633e-007 5.47086e-007 7.0875e-007 -0.0146181 -8.72522e-005 -4.78467e-007 -6.00798e-007 6.90941e-007 8.95351e-007 -4.75633e-007 5.47086e-007 7.0875e-007 -0.0187775 -0.00117465 5.4636e-005 -6.00789e-007 6.90909e-007 8.95382e-007 -4.75633e-007 5.47086e-007 7.0875e-007 -0.0122366 -0.00323318 0.000673182 -6.0077e-007 6.90964e-007 8.95353e-007 -4.75633e-007 5.47086e-007 7.0875e-007 1.02637e-006 -1.18055e-006 -1.52941e-006 -6.008e-007 6.91056e-007 8.95263e-007 9.35647 1.20578 24.7014 61.3711 -1.82688 15.8448 8.70789 15.6026 48.4795 -4.20762 0.788557 -3.94287 3.18055e-015 -3.18055e-015 -0 1.88562e-007 2.41724e-007 -2.97045e-007 -9.42808e-008 -1.20862e-007 1.48523e-007 3.18055e-015 -3.18055e-015 -0 0.0149641 -8.65739e-005 6.76291e-006 -9.42805e-008 -1.20843e-007 1.48538e-007 3.18055e-015 -3.18055e-015 -0 0.0190027 -0.00119018 -5.95687e-005 -9.4279e-008 -1.20838e-007 1.48544e-007 3.18055e-015 -3.18055e-015 -0 0.0122953 -0.00324886 -0.000676009 -9.42757e-008 -1.20847e-007 1.48538e-007 3.18055e-015 -3.18055e-015 -0 1.88562e-007 2.41724e-007 -2.97045e-007 -9.42808e-008 -1.20862e-007 1.48523e-007 -3.78137 -11.0466 -8.67072 0.767504 32.029 -0.155078 9.06402 -15.2044 -8.2448 -9.5545e-007 3.89828e-007 1.62814e-006 6.95085 -10.9606 10.8649 -0.843199 31.8731 0.156625 -11.3399 -14.9593 4.06283 8.7852e-007 1.75346e-007 1.72502e-006 
1.45825 68.2576 64.2934 -6.79982e-015 1.77043 180 -0.196436 6.01671 -0.368347 -0.356699 12.0345 -0.721841 -0.356699 12.0345 -0.721841 7.06285 -27.4828 3.45496 3.91894e-007 -15.4871 -4.15443e-007 -7.23872 1.1123 -22.6101 -59.897 -2.94956 -17.2913 -8.57954 15.5228 -48.2723 1.78546 -0.15954 1.40436 -3.76089e-007 4.31916e-007 5.59143e-007 3.30204e-006 5.65488e-006 -4.16797e-006 9.95222e-007 6.49245e-006 -3.94366e-006 -3.76089e-007 4.31916e-007 5.59143e-007 -0.0146244 -8.49119e-005 -2.26492e-006 -1.16197e-006 3.33859e-006 -3.05451e-006 -3.76089e-007 4.31916e-007 5.59143e-007 -0.0187594 -0.00117196 5.58264e-005 -8.23424e-008 4.91593e-006 -3.4985e-006 -3.76089e-007 4.31916e-007 5.59143e-007 -0.0123207 -0.00325633 0.000679385 -8.25597e-008 4.9158e-006 -3.49879e-006 -3.76089e-007 4.31916e-007 5.59143e-007 3.30204e-006 5.65488e-006 -4.16797e-006 9.95222e-007 6.49245e-006 -3.94366e-006 9.26491 1.33397 24.5568 61.3712 -1.82688 15.8448 8.79831 15.6837 48.8178 -4.46506 0.988139 -3.8402 7.09264e-008 9.06827e-008 -1.11227e-007 -2.36421e-007 -3.02276e-007 3.70757e-007 6.36111e-015 -3.18055e-015 6.36111e-015 7.09264e-008 9.06827e-008 -1.11227e-007 0.0149905 -9.21599e-005 -6.64849e-007 -3.18055e-015 9.54166e-015 -3.18055e-015 7.09264e-008 9.06827e-008 -1.11227e-007 0.0190209 -0.00119452 -5.83173e-005 -6.36111e-015 -6.36111e-015 6.36111e-015 7.09264e-008 9.06827e-008 -1.11227e-007 0.0122805 -0.00325216 -0.000679491 -3.18055e-015 0 6.36111e-015 7.09264e-008 9.06827e-008 -1.11227e-007 -2.36421e-007 -3.02276e-007 3.70757e-007 6.36111e-015 -3.18055e-015 6.36111e-015 -3.85089 -11.7726 -8.92551 0.767109 32.0223 -0.155838 9.0679 -15.1805 -8.03193 -7.75117e-008 3.2422e-007 1.66452e-006 6.99217 -11.6894 11.0184 -0.842805 31.8667 0.156881 -11.3397 -14.9555 4.06325 -2.73329e-016 -1.2921e-015 -0 
1.45825 68.2208 64.4347 -6.8705e-015 1.1937 180 -0.195755 5.92152 -0.368661 -0.355836 11.8442 -0.722697 -0.355836 11.8441 -0.722697 7.01906 -27.3463 3.42632 -1.91998e-006 -15.7077 4.95343e-008 -7.14057 1.23834 -22.4605 -59.9706 -2.89002 -17.2106 -8.67548 15.6073 -48.6289 2.0579 0.0532001 1.34144 1.8373e-006 2.53365e-006 1.6279e-006 8.18916e-007 1.86121e-006 -6.25941e-008 -7.03118e-007 8.06265e-007 1.04299e-006 1.8373e-006 2.53365e-006 1.6279e-006 -0.014616 -8.82598e-005 -2.13161e-006 -7.03116e-007 8.06132e-007 1.0431e-006 1.8373e-006 2.53365e-006 1.6279e-006 -0.0187665 -0.00117736 5.92743e-005 -7.03105e-007 8.06095e-007 1.04313e-006 1.8373e-006 2.53365e-006 1.6279e-006 -0.0122628 -0.0032424 0.000676806 -7.03083e-007 8.06158e-007 1.0431e-006 1.8373e-006 2.53365e-006 1.6279e-006 8.18916e-007 1.86121e-006 -6.25941e-008 -7.03118e-007 8.06265e-007 1.04299e-006 9.17367 1.46238 24.4124 61.3712 -1.82688 15.8448 8.88825 15.7653 49.156 -4.72289 1.18723 -3.73666 1.83229e-006 4.72802e-006 -9.52261e-007 -6.40268e-007 -8.16474e-007 9.99556e-007 -2.13169e-006 4.82474e-006 -3.0222e-007 1.83229e-006 4.72802e-006 -9.52261e-007 0.0150156 -9.5174e-005 1.89861e-007 8.83549e-007 3.5185e-006 5.28102e-007 1.83229e-006 4.72802e-006 -9.52261e-007 0.0189901 -0.00118962 -5.88391e-005 8.83499e-007 3.51853e-006 5.27972e-007 1.83229e-006 4.72802e-006 -9.52261e-007 0.0122215 -0.00323363 -0.000674688 -2.13014e-006 4.82428e-006 -3.02762e-007 1.83229e-006 4.72802e-006 -9.52261e-007 -6.40268e-007 -8.16474e-007 9.99556e-007 -2.13169e-006 4.82474e-006 -3.0222e-007 -3.92387 -12.4982 -9.18182 0.766736 32.0159 -0.156601 9.07167 -15.1567 -7.81906 -8.44835e-016 2.44505e-014 3.18055e-015 7.03559 -12.418 11.1729 -0.842427 31.8606 0.157151 -11.3395 -14.9517 4.06366 8.93074e-007 -1.05428e-007 1.22509e-006 
1.45824 68.1848 64.5763 -6.94114e-015 0.617065 180 -0.195073 5.82633 -0.368973 -0.354975 11.6538 -0.723542 -0.354975 11.6538 -0.723541 6.9754 -27.2096 3.39783 -4.00008e-007 -15.9283 -1.12848e-007 -7.04275 1.36462 -22.3112 -60.0443 -2.83055 -17.1299 -8.77085 15.6923 -48.9855 2.33054 0.265597 1.27753 -6.28738e-007 7.1991e-007 9.30585e-007 -3.77242e-007 4.31946e-007 5.58351e-007 -5.28139e-007 6.04724e-007 7.81692e-007 -6.28738e-007 7.1991e-007 9.30585e-007 -0.0146074 -8.5267e-005 -2.55024e-006 -5.28138e-007 6.04625e-007 7.81769e-007 -6.28738e-007 7.1991e-007 9.30585e-007 -0.018746 -0.0011751 5.57025e-005 -5.2813e-007 6.04597e-007 7.81796e-007 -6.28738e-007 7.1991e-007 9.30585e-007 -0.0122932 -0.00325127 0.000670782 -5.28113e-007 6.04644e-007 7.81771e-007 -6.28738e-007 7.1991e-007 9.30585e-007 -3.77242e-007 4.31946e-007 5.58351e-007 -5.28139e-007 6.04724e-007 7.81692e-007 9.08274 1.59099 24.2682 61.3712 -1.82688 15.8448 8.97774 15.8474 49.4942 -4.98108 1.38584 -3.63222 8.80036e-007 1.11933e-006 -1.36771e-006 2.4974e-007 3.17648e-007 -3.88135e-007 -9.5139e-008 -1.21009e-007 1.47861e-007 8.80036e-007 1.11933e-006 -1.36771e-006 0.0150063 -9.45191e-005 4.02243e-006 -9.51388e-008 -1.20989e-007 1.47877e-007 8.80036e-007 1.11933e-006 -1.36771e-006 0.0190052 -0.00118979 -6.13056e-005 -9.51373e-008 -1.20984e-007 1.47882e-007 8.80036e-007 1.11933e-006 -1.36771e-006 0.0123093 -0.00325562 -0.000680942 -9.5134e-008 -1.20993e-007 1.47877e-007 8.80036e-007 1.11933e-006 -1.36771e-006 2.4974e-007 3.17648e-007 -3.88135e-007 -9.5139e-008 -1.21009e-007 1.47861e-007 -4.0003 -13.2232 -9.43969 0.766352 32.0093 -0.157373 9.07534 -15.1328 -7.60624 1.09332e-015 2.46493e-014 -0 7.08113 -13.1464 11.3282 -0.842069 31.8547 0.157414 -11.3392 -14.948 4.06407 -1.89688e-008 2.52455e-007 2.19113e-006 
